<?xml version="1.0" encoding="UTF-8"?>
<svg xmlns="http://www.w3.org/2000/svg" viewBox="0 0 256 256" width="256" height="256">

  <!-- ═══════════════════════════════════════════
       GARNIXEL LOGO — Yarn Planet (Pixel-Art)
       256×256, Pixel-Grid = 8×8, kein Text
       ═══════════════════════════════════════════ -->

  <!-- Hintergrund: Weltraum -->
  <rect width="256" height="256" rx="32" fill="#060d1a"/>

  <!-- ── PIXEL-STERNE ────────────────────────────── -->
  <rect x="16"  y="16"  width="4" height="4" fill="#e0f7fa" opacity="0.95"/>
  <rect x="232" y="24"  width="4" height="4" fill="#b2ebf2" opacity="0.90"/>
  <rect x="48"  y="32"  width="4" height="4" fill="#e0f7fa" opacity="0.80"/>
  <rect x="200" y="48"  width="4" height="4" fill="#ffffff" opacity="0.85"/>
  <rect x="24"  y="72"  width="4" height="4" fill="#b2ebf2" opacity="0.75"/>
  <rect x="220" y="80"  width="4" height="4" fill="#e0f7fa" opacity="0.90"/>
  <rect x="12"  y="112" width="4" height="4" fill="#ffffff" opacity="0.80"/>
  <rect x="240" y="104" width="4" height="4" fill="#b2ebf2" opacity="0.70"/>
  <rect x="32"  y="184" width="4" height="4" fill="#e0f7fa" opacity="0.85"/>
  <rect x="224" y="192" width="4" height="4" fill="#ffffff" opacity="0.90"/>
  <rect x="16"  y="220" width="4" height="4" fill="#b2ebf2" opacity="0.75"/>
  <rect x="236" y="216" width="4" height="4" fill="#e0f7fa" opacity="0.80"/>
  <rect x="56"  y="224" width="4" height="4" fill="#ffffff" opacity="0.70"/>
  <rect x="196" y="228" width="4" height="4" fill="#b2ebf2" opacity="0.85"/>
  <rect x="100" y="16"  width="4" height="4" fill="#e0f7fa" opacity="0.70"/>
  <rect x="156" y="20"  width="4" height="4" fill="#ffffff" opacity="0.80"/>
  <rect x="76"  y="228" width="4" height="4" fill="#67e8f9" opacity="0.65"/>
  <rect x="172" y="236" width="4" height="4" fill="#5eead4" opacity="0.70"/>
  <!-- Kleine 2×2 -->
  <rect x="8"   y="48"  width="2" height="2" fill="#ffffff" opacity="0.60"/>
  <rect x="36"  y="8"   width="2" height="2" fill="#ccfbf1" opacity="0.55"/>
  <rect x="244" y="56"  width="2" height="2" fill="#ffffff" opacity="0.65"/>
  <rect x="6"   y="140" width="2" height="2" fill="#ffffff" opacity="0.55"/>
  <rect x="248" y="148" width="2" height="2" fill="#ccfbf1" opacity="0.60"/>
  <rect x="44"  y="208" width="2" height="2" fill="#ffffff" opacity="0.50"/>
  <rect x="120" y="8"   width="2" height="2" fill="#ffffff" opacity="0.45"/>
  <rect x="248" y="176" width="2" height="2" fill="#ffffff" opacity="0.60"/>
  <!-- Kreuz-Sterne -->
  <rect x="68"  y="44"  width="4" height="4" fill="#ffffff" opacity="0.95"/>
  <rect x="70"  y="40"  width="2" height="2" fill="#ffffff" opacity="0.60"/>
  <rect x="70"  y="50"  width="2" height="2" fill="#ffffff" opacity="0.60"/>
  <rect x="64"  y="46"  width="2" height="2" fill="#ffffff" opacity="0.60"/>
  <rect x="74"  y="46"  width="2" height="2" fill="#ffffff" opacity="0.60"/>
  <rect x="184" y="32"  width="4" height="4" fill="#67e8f9" opacity="0.95"/>
  <rect x="186" y="28"  width="2" height="2" fill="#67e8f9" opacity="0.60"/>
  <rect x="186" y="38"  width="2" height="2" fill="#67e8f9" opacity="0.60"/>
  <rect x="180" y="34"  width="2" height="2" fill="#67e8f9" opacity="0.60"/>
  <rect x="190" y="34"  width="2" height="2" fill="#67e8f9" opacity="0.60"/>
  <rect x="36"  y="196" width="4" height="4" fill="#5eead4" opacity="0.90"/>
  <rect x="38"  y="192" width="2" height="2" fill="#5eead4" opacity="0.55"/>
  <rect x="38"  y="202" width="2" height="2" fill="#5eead4" opacity="0.55"/>
  <rect x="32"  y="198" width="2" height="2" fill="#5eead4" opacity="0.55"/>
  <rect x="42"  y="198" width="2" height="2" fill="#5eead4" opacity="0.55"/>

  <!-- ── PLANETENRING (hinten) ──────────────────── -->
  <rect x="24"  y="120" width="8" height="8" fill="#0d9488" opacity="0.45"/>
  <rect x="32"  y="112" width="8" height="8" fill="#14b8a6" opacity="0.50"/>
  <rect x="40"  y="108" width="8" height="8" fill="#0d9488" opacity="0.40"/>
  <rect x="48"  y="104" width="8" height="8" fill="#0f766e" opacity="0.45"/>
  <rect x="32"  y="128" width="8" height="8" fill="#0d9488" opacity="0.40"/>
  <rect x="40"  y="132" width="8" height="8" fill="#14b8a6" opacity="0.45"/>
  <rect x="48"  y="136" width="8" height="8" fill="#0d9488" opacity="0.35"/>
  <rect x="24"  y="128" width="8" height="8" fill="#0f766e" opacity="0.35"/>

  <!-- ── PLANET: GARNKNÄUEL ─────────────────────── -->
  <!-- y=64 oben -->
  <rect x="104" y="64"  width="8" height="8" fill="#0f766e"/>
  <rect x="112" y="64"  width="8" height="8" fill="#0d9488"/>
  <rect x="120" y="64"  width="8" height="8" fill="#14b8a6"/>
  <rect x="128" y="64"  width="8" height="8" fill="#2dd4bf"/>
  <rect x="136" y="64"  width="8" height="8" fill="#0d9488"/>
  <rect x="144" y="64"  width="8" height="8" fill="#0f766e"/>
  <!-- y=72 -->
  <rect x="88"  y="72"  width="8" height="8" fill="#0f766e"/>
  <rect x="96"  y="72"  width="8" height="8" fill="#14b8a6"/>
  <rect x="104" y="72"  width="8" height="8" fill="#2dd4bf"/>
  <rect x="112" y="72"  width="8" height="8" fill="#5eead4"/>
  <rect x="120" y="72"  width="8" height="8" fill="#99f6e4"/>
  <rect x="128" y="72"  width="8" height="8" fill="#ccfbf1"/>
  <rect x="136" y="72"  width="8" height="8" fill="#99f6e4"/>
  <rect x="144" y="72"  width="8" height="8" fill="#5eead4"/>
  <rect x="152" y="72"  width="8" height="8" fill="#2dd4bf"/>
  <rect x="160" y="72"  width="8" height="8" fill="#0d9488"/>
  <!-- y=80 Garnlinie cyan diagonal -->
  <rect x="80"  y="80"  width="8" height="8" fill="#0d9488"/>
  <rect x="88"  y="80"  width="8" height="8" fill="#14b8a6"/>
  <rect x="96"  y="80"  width="8" height="8" fill="#06b6d4"/>
  <rect x="104" y="80"  width="8" height="8" fill="#22d3ee"/>
  <rect x="112" y="80"  width="8" height="8" fill="#67e8f9"/>
  <rect x="120" y="80"  width="8" height="8" fill="#22d3ee"/>
  <rect x="128" y="80"  width="8" height="8" fill="#5eead4"/>
  <rect x="136" y="80"  width="8" height="8" fill="#2dd4bf"/>
  <rect x="144" y="80"  width="8" height="8" fill="#14b8a6"/>
  <rect x="152" y="80"  width="8" height="8" fill="#0d9488"/>
  <rect x="160" y="80"  width="8" height="8" fill="#0f766e"/>
  <rect x="168" y="80"  width="8" height="8" fill="#115e59"/>
  <!-- y=88 -->
  <rect x="72"  y="88"  width="8" height="8" fill="#0f766e"/>
  <rect x="80"  y="88"  width="8" height="8" fill="#2dd4bf"/>
  <rect x="88"  y="88"  width="8" height="8" fill="#5eead4"/>
  <rect x="96"  y="88"  width="8" height="8" fill="#134e4a"/>
  <rect x="104" y="88"  width="8" height="8" fill="#0d9488"/>
  <rect x="112" y="88"  width="8" height="8" fill="#14b8a6"/>
  <rect x="120" y="88"  width="8" height="8" fill="#2dd4bf"/>
  <rect x="128" y="88"  width="8" height="8" fill="#5eead4"/>
  <rect x="136" y="88"  width="8" height="8" fill="#2dd4bf"/>
  <rect x="144" y="88"  width="8" height="8" fill="#14b8a6"/>
  <rect x="152" y="88"  width="8" height="8" fill="#0d9488"/>
  <rect x="160" y="88"  width="8" height="8" fill="#0f766e"/>
  <rect x="168" y="88"  width="8" height="8" fill="#0d9488"/>
  <rect x="176" y="88"  width="8" height="8" fill="#115e59"/>
  <!-- y=96 Garnlinie quer cyan -->
  <rect x="72"  y="96"  width="8" height="8" fill="#0d9488"/>
  <rect x="80"  y="96"  width="8" height="8" fill="#14b8a6"/>
  <rect x="88"  y="96"  width="8" height="8" fill="#06b6d4"/>
  <rect x="96"  y="96"  width="8" height="8" fill="#06b6d4"/>
  <rect x="104" y="96"  width="8" height="8" fill="#22d3ee"/>
  <rect x="112" y="96"  width="8" height="8" fill="#06b6d4"/>
  <rect x="120" y="96"  width="8" height="8" fill="#06b6d4"/>
  <rect x="128" y="96"  width="8" height="8" fill="#22d3ee"/>
  <rect x="136" y="96"  width="8" height="8" fill="#06b6d4"/>
  <rect x="144" y="96"  width="8" height="8" fill="#06b6d4"/>
  <rect x="152" y="96"  width="8" height="8" fill="#22d3ee"/>
  <rect x="160" y="96"  width="8" height="8" fill="#14b8a6"/>
  <rect x="168" y="96"  width="8" height="8" fill="#0d9488"/>
  <rect x="176" y="96"  width="8" height="8" fill="#0f766e"/>
  <!-- y=104 -->
  <rect x="64"  y="104" width="8" height="8" fill="#115e59"/>
  <rect x="72"  y="104" width="8" height="8" fill="#0d9488"/>
  <rect x="80"  y="104" width="8" height="8" fill="#2dd4bf"/>
  <rect x="88"  y="104" width="8" height="8" fill="#134e4a"/>
  <rect x="96"  y="104" width="8" height="8" fill="#0f766e"/>
  <rect x="104" y="104" width="8" height="8" fill="#14b8a6"/>
  <rect x="112" y="104" width="8" height="8" fill="#2dd4bf"/>
  <rect x="120" y="104" width="8" height="8" fill="#14b8a6"/>
  <rect x="128" y="104" width="8" height="8" fill="#0d9488"/>
  <rect x="136" y="104" width="8" height="8" fill="#14b8a6"/>
  <rect x="144" y="104" width="8" height="8" fill="#2dd4bf"/>
  <rect x="152" y="104" width="8" height="8" fill="#14b8a6"/>
  <rect x="160" y="104" width="8" height="8" fill="#0d9488"/>
  <rect x="168" y="104" width="8" height="8" fill="#134e4a"/>
  <rect x="176" y="104" width="8" height="8" fill="#0f766e"/>
  <rect x="184" y="104" width="8" height="8" fill="#115e59"/>
  <!-- y=112 Garnlinie diagonal cyan -->
  <rect x="64"  y="112" width="8" height="8" fill="#0d9488"/>
  <rect x="72"  y="112" width="8" height="8" fill="#14b8a6"/>
  <rect x="80"  y="112" width="8" height="8" fill="#2dd4bf"/>
  <rect x="88"  y="112" width="8" height="8" fill="#06b6d4"/>
  <rect x="96"  y="112" width="8" height="8" fill="#22d3ee"/>
  <rect x="104" y="112" width="8" height="8" fill="#06b6d4"/>
  <rect x="112" y="112" width="8" height="8" fill="#0d9488"/>
  <rect x="120" y="112" width="8" height="8" fill="#134e4a"/>
  <rect x="128" y="112" width="8" height="8" fill="#0d9488"/>
  <rect x="136" y="112" width="8" height="8" fill="#06b6d4"/>
  <rect x="144" y="112" width="8" height="8" fill="#22d3ee"/>
  <rect x="152" y="112" width="8" height="8" fill="#06b6d4"/>
  <rect x="160" y="112" width="8" height="8" fill="#2dd4bf"/>
  <rect x="168" y="112" width="8" height="8" fill="#14b8a6"/>
  <rect x="176" y="112" width="8" height="8" fill="#0d9488"/>
  <rect x="184" y="112" width="8" height="8" fill="#0f766e"/>
  <!-- y=120 -->
  <rect x="64"  y="120" width="8" height="8" fill="#0f766e"/>
  <rect x="72"  y="120" width="8" height="8" fill="#0d9488"/>
  <rect x="80"  y="120" width="8" height="8" fill="#134e4a"/>
  <rect x="88"  y="120" width="8" height="8" fill="#0f766e"/>
  <rect x="96"  y="120" width="8" height="8" fill="#14b8a6"/>
  <rect x="104" y="120" width="8" height="8" fill="#2dd4bf"/>
  <rect x="112" y="120" width="8" height="8" fill="#14b8a6"/>
  <rect x="120" y="120" width="8" height="8" fill="#0d9488"/>
  <rect x="128" y="120" width="8" height="8" fill="#14b8a6"/>
  <rect x="136" y="120" width="8" height="8" fill="#2dd4bf"/>
  <rect x="144" y="120" width="8" height="8" fill="#14b8a6"/>
  <rect x="152" y="120" width="8" height="8" fill="#0f766e"/>
  <rect x="160" y="120" width="8" height="8" fill="#134e4a"/>
  <rect x="168" y="120" width="8" height="8" fill="#0d9488"/>
  <rect x="176" y="120" width="8" height="8" fill="#0f766e"/>
  <rect x="184" y="120" width="8" height="8" fill="#115e59"/>
  <!-- y=128 Äquator cyan -->
  <rect x="64"  y="128" width="8" height="8" fill="#0d9488"/>
  <rect x="72"  y="128" width="8" height="8" fill="#14b8a6"/>
  <rect x="80"  y="128" width="8" height="8" fill="#06b6d4"/>
  <rect x="88"  y="128" width="8" height="8" fill="#22d3ee"/>
  <rect x="96"  y="128" width="8" height="8" fill="#06b6d4"/>
  <rect x="104" y="128" width="8" height="8" fill="#06b6d4"/>
  <rect x="112" y="128" width="8" height="8" fill="#22d3ee"/>
  <rect x="120" y="128" width="8" height="8" fill="#06b6d4"/>
  <rect x="128" y="128" width="8" height="8" fill="#22d3ee"/>
  <rect x="136" y="128" width="8" height="8" fill="#06b6d4"/>
  <rect x="144" y="128" width="8" height="8" fill="#22d3ee"/>
  <rect x="152" y="128" width="8" height="8" fill="#06b6d4"/>
  <rect x="160" y="128" width="8" height="8" fill="#22d3ee"/>
  <rect x="168" y="128" width="8" height="8" fill="#14b8a6"/>
  <rect x="176" y="128" width="8" height="8" fill="#0d9488"/>
  <rect x="184" y="128" width="8" height="8" fill="#0f766e"/>
  <!-- y=136 -->
  <rect x="64"  y="136" width="8" height="8" fill="#115e59"/>
  <rect x="72"  y="136" width="8" height="8" fill="#0d9488"/>
  <rect x="80"  y="136" width="8" height="8" fill="#14b8a6"/>
  <rect x="88"  y="136" width="8" height="8" fill="#2dd4bf"/>
  <rect x="96"  y="136" width="8" height="8" fill="#134e4a"/>
  <rect x="104" y="136" width="8" height="8" fill="#0f766e"/>
  <rect x="112" y="136" width="8" height="8" fill="#14b8a6"/>
  <rect x="120" y="136" width="8" height="8" fill="#2dd4bf"/>
  <rect x="128" y="136" width="8" height="8" fill="#14b8a6"/>
  <rect x="136" y="136" width="8" height="8" fill="#0d9488"/>
  <rect x="144" y="136" width="8" height="8" fill="#134e4a"/>
  <rect x="152" y="136" width="8" height="8" fill="#2dd4bf"/>
  <rect x="160" y="136" width="8" height="8" fill="#14b8a6"/>
  <rect x="168" y="136" width="8" height="8" fill="#0d9488"/>
  <rect x="176" y="136" width="8" height="8" fill="#115e59"/>
  <rect x="184" y="136" width="8" height="8" fill="#0f766e"/>
  <!-- y=144 Garnlinie diagonal -->
  <rect x="72"  y="144" width="8" height="8" fill="#0f766e"/>
  <rect x="80"  y="144" width="8" height="8" fill="#06b6d4"/>
  <rect x="88"  y="144" width="8" height="8" fill="#22d3ee"/>
  <rect x="96"  y="144" width="8" height="8" fill="#06b6d4"/>
  <rect x="104" y="144" width="8" height="8" fill="#0d9488"/>
  <rect x="112" y="144" width="8" height="8" fill="#134e4a"/>
  <rect x="120" y="144" width="8" height="8" fill="#0d9488"/>
  <rect x="128" y="144" width="8" height="8" fill="#14b8a6"/>
  <rect x="136" y="144" width="8" height="8" fill="#06b6d4"/>
  <rect x="144" y="144" width="8" height="8" fill="#22d3ee"/>
  <rect x="152" y="144" width="8" height="8" fill="#06b6d4"/>
  <rect x="160" y="144" width="8" height="8" fill="#0d9488"/>
  <rect x="168" y="144" width="8" height="8" fill="#0f766e"/>
  <rect x="176" y="144" width="8" height="8" fill="#115e59"/>
  <!-- y=152 -->
  <rect x="72"  y="152" width="8" height="8" fill="#0d9488"/>
  <rect x="80"  y="152" width="8" height="8" fill="#14b8a6"/>
  <rect x="88"  y="152" width="8" height="8" fill="#2dd4bf"/>
  <rect x="96"  y="152" width="8" height="8" fill="#14b8a6"/>
  <rect x="104" y="152" width="8" height="8" fill="#0f766e"/>
  <rect x="112" y="152" width="8" height="8" fill="#0d9488"/>
  <rect x="120" y="152" width="8" height="8" fill="#14b8a6"/>
  <rect x="128" y="152" width="8" height="8" fill="#2dd4bf"/>
  <rect x="136" y="152" width="8" height="8" fill="#14b8a6"/>
  <rect x="144" y="152" width="8" height="8" fill="#0d9488"/>
  <rect x="152" y="152" width="8" height="8" fill="#0f766e"/>
  <rect x="160" y="152" width="8" height="8" fill="#0d9488"/>
  <rect x="168" y="152" width="8" height="8" fill="#115e59"/>
  <!-- y=160 quer cyan -->
  <rect x="80"  y="160" width="8" height="8" fill="#0f766e"/>
  <rect x="88"  y="160" width="8" height="8" fill="#06b6d4"/>
  <rect x="96"  y="160" width="8" height="8" fill="#22d3ee"/>
  <rect x="104" y="160" width="8" height="8" fill="#06b6d4"/>
  <rect x="112" y="160" width="8" height="8" fill="#14b8a6"/>
  <rect x="120" y="160" width="8" height="8" fill="#0d9488"/>
  <rect x="128" y="160" width="8" height="8" fill="#06b6d4"/>
  <rect x="136" y="160" width="8" height="8" fill="#22d3ee"/>
  <rect x="144" y="160" width="8" height="8" fill="#06b6d4"/>
  <rect x="152" y="160" width="8" height="8" fill="#0d9488"/>
  <rect x="160" y="160" width="8" height="8" fill="#0f766e"/>
  <!-- y=168 -->
  <rect x="80"  y="168" width="8" height="8" fill="#0d9488"/>
  <rect x="88"  y="168" width="8" height="8" fill="#14b8a6"/>
  <rect x="96"  y="168" width="8" height="8" fill="#2dd4bf"/>
  <rect x="104" y="168" width="8" height="8" fill="#14b8a6"/>
  <rect x="112" y="168" width="8" height="8" fill="#0d9488"/>
  <rect x="120" y="168" width="8" height="8" fill="#14b8a6"/>
  <rect x="128" y="168" width="8" height="8" fill="#2dd4bf"/>
  <rect x="136" y="168" width="8" height="8" fill="#14b8a6"/>
  <rect x="144" y="168" width="8" height="8" fill="#0d9488"/>
  <rect x="152" y="168" width="8" height="8" fill="#115e59"/>
  <!-- y=176 -->
  <rect x="88"  y="176" width="8" height="8" fill="#115e59"/>
  <rect x="96"  y="176" width="8" height="8" fill="#0f766e"/>
  <rect x="104" y="176" width="8" height="8" fill="#0d9488"/>
  <rect x="112" y="176" width="8" height="8" fill="#14b8a6"/>
  <rect x="120" y="176" width="8" height="8" fill="#0d9488"/>
  <rect x="128" y="176" width="8" height="8" fill="#14b8a6"/>
  <rect x="136" y="176" width="8" height="8" fill="#0d9488"/>
  <rect x="144" y="176" width="8" height="8" fill="#0f766e"/>
  <rect x="152" y="176" width="8" height="8" fill="#115e59"/>
  <!-- y=184 unten -->
  <rect x="104" y="184" width="8" height="8" fill="#115e59"/>
  <rect x="112" y="184" width="8" height="8" fill="#0f766e"/>
  <rect x="120" y="184" width="8" height="8" fill="#0d9488"/>
  <rect x="128" y="184" width="8" height="8" fill="#0f766e"/>
  <rect x="136" y="184" width="8" height="8" fill="#115e59"/>

  <!-- Garnfaden oben rechts raus -->
  <rect x="176" y="72"  width="8" height="8" fill="#22d3ee"/>
  <rect x="184" y="64"  width="8" height="8" fill="#22d3ee"/>
  <rect x="192" y="56"  width="8" height="8" fill="#67e8f9"/>
  <rect x="200" y="56"  width="8" height="8" fill="#22d3ee"/>
  <rect x="208" y="64"  width="6" height="6" fill="#06b6d4"/>
  <rect x="202" y="64"  width="6" height="6" fill="#22d3ee"/>

  <!-- ── PLANETENRING (vorne) ───────────────────── -->
  <rect x="184" y="120" width="8" height="8" fill="#2dd4bf" opacity="0.80"/>
  <rect x="192" y="112" width="8" height="8" fill="#14b8a6" opacity="0.85"/>
  <rect x="200" y="108" width="8" height="8" fill="#2dd4bf" opacity="0.75"/>
  <rect x="208" y="112" width="8" height="8" fill="#0d9488" opacity="0.80"/>
  <rect x="212" y="120" width="8" height="8" fill="#14b8a6" opacity="0.70"/>
  <rect x="192" y="128" width="8" height="8" fill="#2dd4bf" opacity="0.75"/>
  <rect x="200" y="132" width="8" height="8" fill="#14b8a6" opacity="0.70"/>
  <rect x="208" y="128" width="8" height="8" fill="#0d9488" opacity="0.65"/>
  <rect x="184" y="136" width="8" height="8" fill="#134e4a" opacity="0.50"/>

  <!-- ── KLEINER MOND ────────────────────────────── -->
  <rect x="208" y="184" width="8" height="8" fill="#0d9488" opacity="0.90"/>
  <rect x="216" y="176" width="8" height="8" fill="#14b8a6" opacity="0.85"/>
  <rect x="224" y="176" width="8" height="8" fill="#2dd4bf" opacity="0.80"/>
  <rect x="216" y="184" width="8" height="8" fill="#0f766e" opacity="0.85"/>
  <rect x="224" y="184" width="8" height="8" fill="#0d9488" opacity="0.80"/>
  <rect x="208" y="192" width="8" height="8" fill="#115e59" opacity="0.75"/>
  <rect x="216" y="192" width="8" height="8" fill="#0d9488" opacity="0.80"/>
  <rect x="228" y="172" width="4" height="4" fill="#22d3ee" opacity="0.70"/>
  <rect x="232" y="168" width="4" height="4" fill="#06b6d4" opacity="0.65"/>

  <!-- ── RAHMEN ──────────────────────────────────── -->
  <rect width="256" height="256" rx="32" fill="none"
        stroke="#0d9488" stroke-width="3" opacity="0.80"/>
  <rect x="2" y="2" width="252" height="252" rx="30" fill="none"
        stroke="#2dd4bf" stroke-width="1" opacity="0.25"/>

</svg>
